/* XPM */
static char *_462aea2b4054e13e80701d8f480d1a1[] = {
/* columns rows colors chars-per-pixel */
"64 64 199 2 ",
"   c #050708",
".  c #06090A",
"X  c #0A0C0D",
"o  c #0A0E11",
"O  c #0C1115",
"+  c #0E161B",
"@  c #0C181D",
"#  c #121213",
"$  c #181617",
"%  c #161718",
"&  c #11181D",
"*  c #1B1A1C",
"=  c #201E1F",
"-  c #0C1520",
";  c #0F1D24",
":  c #131C22",
">  c #101E2A",
",  c #231F20",
"<  c #142127",
"1  c #1C2126",
"2  c #15232C",
"3  c #1A252E",
"4  c #142534",
"5  c #192731",
"6  c #162A34",
"7  c #1A2A34",
"8  c #132438",
"9  c #152C38",
"0  c #1B2E3B",
"q  c #1C313D",
"w  c #242223",
"e  c #292526",
"r  c #232629",
"t  c #2A282A",
"y  c #2A2E31",
"u  c #302F31",
"i  c #2E3133",
"p  c #343334",
"a  c #303439",
"s  c #3B3B3D",
"d  c #182E49",
"f  c #1D3341",
"g  c #1B3847",
"h  c #1F3448",
"j  c #1B3848",
"k  c #1E3F51",
"l  c #203947",
"z  c #2B3A41",
"x  c #203548",
"c  c #223D4D",
"v  c #323B41",
"b  c #393C42",
"n  c #333F4A",
"m  c #1F3B60",
"M  c #213F66",
"N  c #4B3B5C",
"B  c #57365C",
"V  c #723257",
"C  c #4B3866",
"Z  c #413772",
"A  c #5B3870",
"S  c #244355",
"D  c #25445B",
"F  c #26495C",
"G  c #304354",
"H  c #394B56",
"J  c #394C58",
"K  c #244665",
"L  c #294763",
"P  c #254F66",
"I  c #294C62",
"U  c #274B6C",
"Y  c #2C4E6E",
"T  c #27536B",
"R  c #2C546B",
"E  c #2D586F",
"W  c #365364",
"Q  c #284F72",
"!  c #244E7B",
"~  c #2C5271",
"^  c #2D5B74",
"/  c #26517D",
"(  c #2A567C",
")  c #2B597D",
"_  c #385C70",
"`  c #3E5478",
"'  c #315F79",
"]  c #33627D",
"[  c #39667F",
"{  c #424243",
"}  c #464849",
"|  c #4A4B4D",
" . c #595A5B",
".. c #455C65",
"X. c #4B5863",
"o. c #59656E",
"O. c #54707C",
"+. c #606062",
"@. c #666868",
"#. c #696B6E",
"$. c #606470",
"%. c #853560",
"&. c #B24072",
"*. c #1E4080",
"=. c #1F4090",
"-. c #294F81",
";. c #2A5284",
":. c #2B5E81",
">. c #345D84",
",. c #224292",
"<. c #204499",
"1. c #2E5991",
"2. c #2D628E",
"3. c #336581",
"4. c #356885",
"5. c #396882",
"6. c #366D8C",
"7. c #386F8E",
"8. c #3B718E",
"9. c #2F6697",
"0. c #356693",
"q. c #316B92",
"w. c #376F9D",
"e. c #3A6B9B",
"r. c #367497",
"t. c #3A7393",
"y. c #3A799C",
"u. c #3563A0",
"i. c #3567A8",
"p. c #3D75A3",
"a. c #3C7CA2",
"s. c #3D76AB",
"d. c #396FB6",
"f. c #436E86",
"g. c #43748F",
"h. c #4A779F",
"j. c #537199",
"k. c #687787",
"l. c #617D89",
"z. c #6B7F8A",
"x. c #407BAC",
"c. c #427EB6",
"v. c #ED4F8C",
"b. c #3F81A6",
"n. c #3D84AB",
"m. c #3C83B1",
"M. c #7C8897",
"N. c #4184AB",
"B. c #4288AF",
"V. c #4280B3",
"C. c #438BB3",
"Z. c #4384BF",
"A. c #428FB9",
"S. c #4492BC",
"D. c #599ABD",
"F. c #6D8EA0",
"G. c #6C91A1",
"H. c #7C96A3",
"J. c #6E9BB3",
"K. c #769FB5",
"L. c #7CA2B6",
"P. c #468BCA",
"I. c #4695C1",
"U. c #4699C7",
"Y. c #4899C5",
"T. c #479BC9",
"R. c #4A9DCB",
"E. c #539FC9",
"W. c #4AA3D3",
"Q. c #4FAEE2",
"!. c #8A989F",
"~. c #A89098",
"^. c #B0969E",
"/. c #8B97A2",
"(. c #849CA7",
"). c #AD9CAB",
"_. c #9AA9B2",
"`. c #93ACBA",
"'. c #99AFBA",
"]. c #96B1BE",
"[. c #9CB2BC",
"{. c #A4B5BE",
"}. c #A8B6BE",
"|. c #AEBAC0",
" X c #A3BDCF",
".X c #B6BCC0",
"XX c #B9BEC0",
"oX c #AEC2C9",
"OX c #B2C6CD",
"+X c #BACCD3",
"@X c #C8CCCF",
"#X c #CFD4DA",
"$X c #FAC6C8",
"%X c #C2D2E4",
"&X c #DFE0E0",
"*X c #DDE9EE",
"=X c #F0F6FB",
"-X c #FEFFFF",
";X c None",
/* pixels */
";X;X;X;X;X;X;X;X;X;X;X;X;X;X;X;X;X;X;X;X;X;X;X;X;X;X;X;X;X;X;X;X;X;X;X;X;X;X;X;X;X;X;X;X;X;X;X;X;X;X;X;X;X;X;X;X;X;X;X;X;X;X;X;X",
";X;X;X;X;X;X;X;X;X;X;X;X;X;X;X;X;X;X;X;X;X;X;X;X;X;X;X;X;X;X;X;X;X;X;X;X;X;X;X;X;X;X;X;X;X;X;X;X;X;X;X;X;X;X;X;X;X;X;X;X;X;X;X;X",
";X;X;X;X;X;X;X;X;X;X;X;X;X;X;X;X;X;X;X;X;X;X;X;X;X;X;X;X;X;X;X;X;X;X;X;X;X;X;X;X;X;X;X2 2 ;X;X;X;X;X;X;X;X;X;X;X;X;X;X;X;X;X;X;X",
";X;X;X;X;X;X;X;X;X;X;X;X;X;X;X;X;X;X;X;X;X;X;X;X;X;X;X;X;X;X;X;X;X;X;X;X;X;X;X;X;X;X;XR R.7 ;X;X;X;X;X;X;X;X;X;X;X;X;X;X;X;X;X;X",
";X;X;X;X;X;X;X;X;X;X;X;X;X;X;X;X;X;X;X;X;X;X;X;X;X;X;X;X;X;X;X;X;X;X;X;X;X;X;X;X;X;Xo B.Q.T.< ;X;X;X;X;X;X;X;X;X;X;X;X;X;X;X;X;X",
";X;X;X;X;X;X;X;X;X;X;X;X;X;X;X;X;X;X;X;X;X;X;X;X;X;X;X;X;X;X;X;X;X;X;X;X;X;X;X;X;X;Xf Q.Q.Q.t.X ;X;X;X;X;X;X;X;X;X;X;X;X;X;X;X;X",
";X;X;X;X;X;X;X;X;X;X;X;X;X;X;X;X;X;X;X;X;X;X;X;X;X;X< ~ O ;X;X;X;X;X;X;X;X;X;X;X;X;X4.Q.Q.Q.Q.l ;X;X;X;X;X;X;X;X;X;X;X;X;X;X;X;X",
";X;X;X;X;X;X;X;X;X;X;X;X;X;X;X;X;X;X;X;X;X;X;X;X;X;XD P.( X ;X;X;X;X;X;X;X;X;X;X;X3 Q.Q.Q.Q.Q.7.;X;X;X;X;X;X;X;X;X;X;X;X;X;X;X;X",
";X;X;X;X;X;X;X;X;X;X;X;X;X;X;X;X;X;X;X;X;X;X;X;X;XX e.P.P.h ;X;X;X;X;X;X;X;X;X;X;X3.Q.Q.Q.Q.Q.Q.: ;X;X;X;X;X;X;X;X;X;X;X;X;X;X;X",
";X;X;X;X;X;X;X;X;X;X;X;X;X;X;X;X;X;X;X;X;X;X;X;X;Xh P.P.P.p.# ;X;X;X;X;X;X;X;X;X0 Q.Q.Q.Q.Q.Q.Q.l ;X;X;X;X;X;X;X;X;X;X;X;X;X;X;X",
";X;X;X;X;X;X;X;X;X;X;X;X;X;X;X;X;X;X;X;X;X;X;X;XX 0.P.P.P.P.0 ;X;X;X;X;X;X;X;X# a.Q.Q.Q.Q.Q.Q.Q.I ;X;X;X;X;X;X;X;X;X;X;X;X;X;X;X",
";X;X;X;X;X;X;X;X;X;X;X;X;X;X;X;X;X;X;X;X;X;X;X;Xx P.P.P.P.P.D ;X;X;X;X;X;X;X;XI Q.Q.Q.Q.Q.Q.Q.Q.R ;X;X;X;X;X;X;X;X;X;X;X;X;X;X;X",
";X;X;X;X;X;X;X;X;X;X;X;X;Xo * i p 1 # ;X;X;X;X& s.P.P.P.P.P.Y ;X;X;X;X;X;X;X9 W.Q.Q.Q.Q.Q.Q.Q.Q.I ;X;X;X;X;X;X;X;X;X;X;X;X;X;X;X",
";X;X;X;X;X;X;X;X;X;Xo q S y | | | | i # ;X;X;X~ P.P.P.P.P.P.~ ;X;X;X;X;X;X: C.Q.Q.Q.Q.Q.Q.Q.Q.Q.c ;X;X;X;X;X;X;X;X;X;X;X;X;X;X;X",
";X;X;X;X;X;X;X;XO S N.A.v s | | | | } i S O c P.P.P.P.P.P.P.L ;X;X;X;X;X+ t.Q.Q.Q.Q.Q.Q.Q.Q.Q.Q.5 ;X2 o ;X;X;X;X;X;X;X;X;X;X;X;X",
";X;X;X;X;X;X;X6 a.Q.Q.5.{ t s { { b t s 5.N.p.P.P.P.P.P.P.P.f X 5 ;X;Xo 4.Q.Q.Q.Q.Q.Q.Q.Q.Q.Q.y.  2 A.q ;X;X;X;X;X;X;X;X;X;X;X;X",
";X;X;X;X;X;Xq R.Q.Q.Q.S.H { s p p s { H I.Q.W.V.P.P.P.P.P.x.# Y s.o O [ Q.Q.Q.Q.Q.Q.Q.Q.Q.Q.Q.S q S.Q.E ;X;X;X;X;X;X;X;X;X;X;X;X",
";X;X;X;X;X2 R.Q.Q.Q.Q.Q.W.7._ W W _ 7.W.Q.Q.Q.W.x.P.P.P.P.L >.P.P.3 6.Q.Q.Q.Q.Q.Q.Q.Q.Q.Q.Q.T.E Q.Q.Q.t.;X;X;X;X;X;X;X;X;X;X;X;X",
";X;X;X;Xo y.Q.Q.Q.Q.Q.Q.Q.Q.Q.Q.Q.Q.Q.Q.Q.Q.Q.Q.U.c.P.P.P.P.P.P.x.y.Q.Q.Q.Q.Q.Q.Q.Q.Q.Q.Q.Q.Q.Q.Q.Q.Q.y.  ;X;X;X;X;X;X;X;X;X;X;X",
";X;X;X;Xj n.T.Q.Q.Q.Q.Q.Q.Q.Q.Q.Q.Q.Q.Q.Q.Q.Q.Q.Q.p.P.P.P.P.P.x.W.Q.Q.Q.Q.Q.Q.Q.Q.Q.Q.Q.Q.Q.Q.Q.Q.Q.Q.N.  ;X;X;X;X;X;X;X;X;X;X;X",
";X;X;Xk y.U.U.U.Q.Q.Q.Q.Q.Q.Q.Q.Q.Q.Q.Q.Q.Q.Q.Q.Q.A.Z.P.P.V.N.Q.Q.Q.Q.Q.Q.Q.Q.Q.Q.Q.Q.Q.Q.Q.Q.Q.Q.Q.Q.t.;X;X;X;X;X;X;X;X;X;X;X;X",
";X;Xf g.L.F.f.Q.Q.Q.Q.Q.Q.Q.Q.U.n.n.n.U.Q.Q.Q.Q.Q.Q.h.P.p.U.Q.Q.Q.Q.Q.Q.Q.Q.Q.Q.Q.Q.Q.Q.Q.Q.Q.Q.Q.Q.Q.] ;X;X;X;X;X;X;X;X;X;X;X;X",
";X;Xz +XOX-X-XJ.Q.Q.Q.Q.Q.Q.Q.U.W.r.A.T.T.Q.Q.Q.Q.Q.N.N.Q.Q.Q.Q.Q.Q.Q.Q.Q.Q.Q.Q.Q.Q.Q.Q.Q.Q.Q.Q.Q.Q.Q.S ;X;X;X;X;X;X;X;X;X;X;X;X",
";X;X@...G.}.-X{.Q.Q.Q.Q.Q.Q.E.H.@X&X_.D.Q.Q.Q.Q.Q.Q.Q.Q.Q.Q.Q.Q.Q.Q.Q.Q.Q.Q.Q.Q.Q.Q.Q.Q.Q.Q.Q.Q.Q.Q.R.: ;X;X;X;X;X;X;X;X;X;X;X;X",
";X;X .OX].-X-X`.Q.Q.Q.Q.Q.Q.[.-X-X*X{.}.Q.Q.Q.Q.Q.Q.Q.Q.Q.Q.Q.Q.Q.Q.Q.Q.Q.Q.Q.Q.Q.Q.Q.Q.Q.Q.Q.Q.Q.Q.E ;X;X;X;X;X;X;X;X;X;X;X;X;X",
";X;X# z..X.X'.E.Q.Q.Q.Q.Q.Q.XX-X-Xl.O.!.Q.Q.Q.Q.Q.Q.Q.Q.Q.Q.Q.Q.Q.Q.Q.Q.Q.Q.Q.Q.Q.Q.Q.Q.Q.Q.Q.Q.Q.A.: ;X;X;X;X;X;X;X;X;X;X;X;X;X",
";X;X;X; F y.Q.W.Q.Q.Q.Q.Q.Q.K.-X-XoX(.].Q.Q.Q.Q.Q.Q.Q.Q.Q.Q.Q.Q.Q.Q.Q.Q.Q.Q.Q.Q.Q.Q.Q.Q.Q.Q.Q.Q.W.0 ;X: ;X;X;X;X;X;X;X;X;X;X;X;X",
";X;X;X;X;Xj n.Q.Q.Q.Q.Q.Q.Q.Q.t.K.L.J.A.Q.Q.Q.Q.Q.Q.Q.Q.Q.Q.Q.Q.Q.Q.Q.Q.Q.Q.Q.Q.Q.Q.Q.Q.Q.Q.Q.R.f 2 E 4.  ;X;X;X;X;X;X;X;X;X;X;X",
";X;X;X;X;X@ T.Q.2.m.Q.Q.Q.Q.Q.W.n.n.n.W.Q.Q.Q.Q.Q.Q.Q.Q.Q.Q.Q.Q.Q.Q.Q.Q.Q.Q.Q.Q.Q.Q.Q.Q.Q.Q.Q.[ t.Q.Q.t.;X;X;X;X;X;X;X;X;X;X;X;X",
";X;X;X;X;Xj Q.Q.2.W.Q.Q.W.:.) :.:.U.Q.Q.Q.Q.Q.Q.Q.Q.Q.Q.Q.Q.Q.Q.Q.Q.Q.Q.Q.Q.Q.Q.Q.Q.Q.Q.Q.Q.Q.Q.Q.Q.Q.] ;X;X;X;X;X;X;X;X;X;X;X;X",
";X;X;X;X  y.Q.Q.Q.Q.U.-.*.<.<.<.,.C ` Q.Q.Q.Q.Q.Q.Q.Q.Q.Q.Q.Q.Q.Q.Q.Q.Q.Q.Q.Q.Q.Q.Q.Q.Q.Q.Q.Q.Q.Q.Q.Q.F ;X;X;X;X;X;X;X;X;X;X;X;X",
";X;X;X;X; Q.Q.Q.Q.S.) =.<.<.=.A %.v.B Q.Q.Q.Q.Q.Q.Q.Q.Q.Q.Q.Q.Q.Q.Q.Q.Q.Q.Q.Q.Q.Q.Q.Q.Q.Q.Q.Q.Q.Q.Q.Q.3 ;X;X;X;X;X;X;X;X;X;X;X;X",
";X;X;X;X9 Q.Q.Q.T.; 9 9.<.<.Z &.V N U.Q.Q.Q.Q.Q.Q.Q.Q.Q.Q.Q.Q.Q.Q.Q.Q.Q.Q.Q.Q.Q.Q.Q.Q.Q.Q.Q.Q.Q.Q.Q.t.  ;X;X;X;X;X;X;X;X;X;X;X;X",
";X;X;X;X; W.Q.Q.9 ;Xf q.! :.~ A.Q.Q.Q.Q.Q.Q.Q.Q.Q.Q.Q.Q.Q.Q.Q.Q.Q.Q.Q.Q.Q.Q.Q.Q.Q.Q.Q.Q.Q.Q.Q.Q.Q.Q.q ;X;X;X;X;X;X;X;X;X;X;X;X;X",
";X;X;X;X;XP Q.^ ;X;X2 T ^ n.n.A.Q.Q.Q.Q.Q.Q.Q.Q.Q.Q.Q.Q.Q.Q.Q.Q.Q.Q.Q.Q.Q.Q.Q.Q.Q.Q.Q.Q.Q.Q.Q.Q.Q.' ;X;X;X;X;X;X;X;X;X;X;X;X;X;X",
";X;X;X;X;X  D ; ;X;X;X;X@ W.Q.Q.Q.Q.Q.Q.Q.Q.Q.Q.Q.Q.Q.Q.Q.Q.Q.Q.Q.Q.Q.Q.Q.Q.Q.Q.Q.Q.Q.Q.Q.Q.Q.Q.b.+ ;X;X;X;X;X;X;X;X;X;X;X;X  ;X",
";X;X;X;X;X;X;X;X;X;X;X;X;X] Q.Q.Q.Q.Q.Q.Q.Q.Q.Q.Q.Q.Q.Q.Q.Q.Q.Q.Q.Q.Q.Q.Q.Q.Q.Q.Q.Q.Q.Q.Q.Q.Q.6.+ ;X;X;X;X;X;X;X;X;X;X;X& S 7 ;X",
";X;X;X;X;X;X;X;X;X;X;X;X;X7 Q.Q.Q.Q.Q.Q.Q.Q.Q.Q.Q.Q.Q.Q.Q.Q.Q.Q.Q.Q.Q.Q.Q.Q.Q.Q.Q.Q.Q.Q.Q.W.F O ;X;X;X;X;X;X;X;X;XX 0 E Y.R ;X;X",
";X;X;X;X;X;X;X;X;X;X;X;X;X;X7.Q.Q.Q.Q.Q.Q.Q.Q.Q.Q.Q.Q.Q.Q.Q.Q.Q.Q.Q.Q.Q.Q.Q.Q.Q.Q.Q.Q.Q.Q.[ F f 5 & .   & 2 q S ] C.Q.Q.7.o ;X;X",
";X;X;X;X;X;X;X;X;X;X;X;X;X;Xq Q.Q.Q.Q.Q.Q.Q.Q.Q.Q.Q.Q.Q.Q.Q.Q.Q.Q.Q.Q.Q.Q.Q.Q.Q.Q.Q.Q.Q.Q.Q.Q.Q.Q.Q.C.C.R.Q.Q.Q.Q.Q.Q.n.+ ;X;X;X",
";X;X;X;X;X;X;X;X;X;X;X;X;X;X;X3.Q.Q.Q.Q.Q.Q.Q.Q.Q.Q.Q.Q.Q.Q.Q.Q.Q.Q.Q.Q.Q.Q.Q.Q.Q.Q.Q.Q.Q.Q.Q.Q.Q.Q.Q.Q.Q.Q.Q.Q.Q.Q.B.; ;X;X;X;X",
";X;X;X;X;X;X;X;X;X;X;X;X;X;X;X< R.Q.Q.Q.Q.Q.Q.Q.Q.Q.Q.Q.Q.Q.Q.Q.Q.Q.Q.Q.Q.Q.Q.Q.Q.Q.Q.Q.Q.Q.Q.Q.Q.Q.Q.Q.Q.Q.Q.Q.Q.b.: ;X;X;X;X;X",
";X;X;X;X;X;X;X;X;X;X;X;X;X;X;X;Xc Q.Q.Q.Q.Q.Q.Q.Q.Q.Q.Q.Q.Q.Q.Q.Q.Q.Q.Q.Q.Q.Q.Q.Q.Q.Q.Q.Q.Q.Q.Q.Q.Q.Q.Q.Q.Q.Q.Q.6.& ;X;X;X;X;X;X",
";X;X;X;X;X;X;X;X;X;X;X;X;X;X;X;X;XE Q.Q.Q.Q.Q.Q.Q.Q.Q.Q.Q.Q.Q.Q.Q.Q.Q.Q.Q.Q.Q.Q.Q.Q.Q.Q.Q.Q.Q.Q.Q.Q.Q.Q.Q.Q.Q.I X ;X;X;X;X;X;X;X",
";X;X;X;X;X;X;X;X;X;X;X;X;X;X;X;X;XO 6.Q.Q.Q.Q.Q.Q.Q.Q.Q.Q.Q.Q.Q.Q.Q.Q.Q.Q.Q.Q.Q.Q.Q.Q.Q.Q.Q.Q.Q.Q.Q.Q.Q.Q.n.7 ;X;X;X;X;X;X;X;X;X",
";X;X;X;X;X;X;X;X;X;X;X;X;X;X;X;X;X;XO 4.Q.Q.Q.Q.Q.Q.Q.Q.Q.Q.Q.Q.Q.Q.Q.Q.Q.Q.Q.Q.Q.Q.Q.Q.Q.Q.Q.Q.Q.Q.Q.R.I O ;X;X;X;X;X;X;X;X;X;X",
";X;X;X;X;X;X;X;X;X;X;X;X;X;X;X;X;X;X;XX I Q.Q.Q.Q.Q.Q.Q.Q.Q.Q.Q.Q.Q.Q.n.) ~ n.Q.Q.Q.Q.Q.Q.Q.Q.Q.Q.W.R < ;X;X;X;X;X;X;X;X;X;X;X;X",
";X;X;X;X;X;X;X;X;X;X;X;X;X;X;X;X;X;X;X;X;X0 b.Q.Q.Q.Q.Q.Q.Q.Q.Q.Q.Q.Q.) P.Z.m.Q.Q.Q.Q.Q.Q.Q.Q.b.F < ;X;X;X;X;X;X;X;X;X;X;X;X;X;X",
";X;X;X;X;X;X;X;X;X;X;X;X;X;X;X;X;X;X;X;X;X;XO S B.Q.Q.Q.Q.Q.Q.Q.Q.Q.Q.y.P.P.a.Q.Q.Q.Q.Q.U.] # $ # X   ;X;X;X;X;X;X;X;X;X;X;X;X;X",
";X;X;X;X;X;X;X;X;X;X;X;X;X;X;X;X;X;X;X;X;X;X;X4 u.e.p.C.Q.Q.Q.Q.Q.Q.Q.Q.w.P.w.Q.T.8.R f O % + $ , , w X ;X;X;X;X;X;X;X;X;X;X;X;X",
";X;X;X;X;X;X;X;X;X;X;X;X;X;X;X;X;X;X;X;X;X;X8 d.d.1.- X 7 S I ^ ] 3.4.' Q P.P.q O ;X;X;XX.#X#.$ , , t o ;X;X;X;X;X;X;X;X;X;X;X;X",
";X;X;X;X;X;X;X;X;X;X;X;X;X;X;X;X;X;X;X;X;X  -.d.;.@ ;X;X;X;X;X;X;X;X;X;XO s.P.m ;X;X7 /.-X-Xw , , = t X ;X;X;X;X;X;X;X;X;X;X;X;X",
";X;X;X;X;X;X;X;X;X;X;X;X;X;X;X;X;X;X;X;X;X;XM d.i.d X ;X;X;X;X;X;X;X;X;X;XK P.p.X n ).=X-Xy $ = , , , X ;X;X;X;X;X;X;X;X;X;X;X;X",
";X;X;X;X;X;X;X;X;X;X;X;X;X;X;X;X;X;X;X;X;X;X# m d.j.~.G ;X;X;X;X;X;X;X;X;X4 P.P.Q h.$X X$.. $ = , t X ;X;X;X;X;X;X;X;X;X;X;X;X;X",
";X;X;X;X;X;X;X;X;X;X;X;X;X;X;X;X;X;X;X;X;X;X;X;X8 ^.%X-XM.1 ;X;X;X;X;X;X;X  0.P.P.P.$.r X X $ , , w . ;X;X;X;X;X;X;X;X;X;X;X;X;X",
";X;X;X;X;X;X;X;X;X;X;X;X;X;X;X;X;X;X;X;X;XX X X . 1 k.-X-X#X* o   ;X;X;X;X;X4 :.U > ;X. t , , , , =   ;X;X;X;X;X;X;X;X;X;X;X;X;X",
";X;X;X;X;X;X;X;X;X;X;X;X;X;X;X;X;X;X;X;XX { #.s = X o * b a * , o ;X;X;X;X;X;X;X;X;X  w +.= , , w # ;X;X;X;X;X;X;X;X;X;X;X;X;X;X",
";X;X;X;X;X;X;X;X;X;X;X;X;X;X;X;X;X;X;X;X# e e , , , # , , , w , # ;X;X;X;X;X;X;X;X;X. u p = , , t X ;X;X;X;X;X;X;X;X;X;X;X;X;X;X",
";X;X;X;X;X;X;X;X;X;X;X;X;X;X;X;X;X;X;X;XX , , , , , , , , , = = # ;X;X;X;X;X;X;X;X;X. # = = , w $ . ;X;X;X;X;X;X;X;X;X;X;X;X;X;X",
";X;X;X;X;X;X;X;X;X;X;X;X;X;X;X;X;X;X;X;XX , , , , , , = w , w w * * ;X;X;X;X;X;X;X;X;X. # = , w X ;X;X;X;X;X;X;X;X;X;X;X;X;X;X;X",
";X;X;X;X;X;X;X;X;X;X;X;X;X;X;X;X;X;X;X;XX w t t t t t = % * * $ X ;X;X;X;X;X;X;X;X;X;X;X# . # . ;X;X;X;X;X;X;X;X;X;X;X;X;X;X;X;X",
";X;X;X;X;X;X;X;X;X;X;X;X;X;X;X;X;X;X;X;X;XX X X X X X # $ # % r ;X;X;X;X;X;X;X;X;X;X;X;X;X;X;X;X;X;X;X;X;X;X;X;X;X;X;X;X;X;X;X;X",
";X;X;X;X;X;X;X;X;X;X;X;X;X;X;X;X;X;X;X;X;X;X;X;X;X;X;X;X;X;X;X;X;X;X;X;X;X;X;X;X;X;X;X;X;X;X;X;X;X;X;X;X;X;X;X;X;X;X;X;X;X;X;X;X",
";X;X;X;X;X;X;X;X;X;X;X;X;X;X;X;X;X;X;X;X;X;X;X;X;X;X;X;X;X;X;X;X;X;X;X;X;X;X;X;X;X;X;X;X;X;X;X;X;X;X;X;X;X;X;X;X;X;X;X;X;X;X;X;X"
};
