/* XPM */
static char *_90f2b0551574e0def5a5e23b96acaa2[] = {
/* columns rows colors chars-per-pixel */
"16 16 86 1 ",
"  c #121213",
". c #121215",
"X c #141617",
"o c #151617",
"O c #151719",
"+ c #171718",
"@ c #181719",
"# c #1A1A1B",
"$ c #1B1A1B",
"% c #1B1D1E",
"& c #1C1C1D",
"* c #141B21",
"= c #201F20",
"- c #1A252C",
"; c #252526",
": c #282C30",
"> c #243035",
", c #273138",
"< c #182E48",
"1 c #1E3341",
"2 c #1B3847",
"3 c #1D3C4D",
"4 c #213340",
"5 c #203441",
"6 c #213641",
"7 c #253447",
"8 c #213549",
"9 c #383B47",
"0 c #203D58",
"q c #433050",
"w c #1E4154",
"e c #27404F",
"r c #2E414D",
"t c #264456",
"y c #22405C",
"u c #3F4B50",
"i c #2B4B69",
"p c #2E4F6E",
"a c #2A5065",
"s c #2B5066",
"d c #335669",
"f c #31566A",
"g c #254A7B",
"h c #2B5D7C",
"j c #305171",
"k c #305970",
"l c #305B75",
"z c #305C75",
"x c #315E77",
"c c #325F77",
"v c #345F79",
"b c #35647F",
"n c #45565F",
"m c #365D83",
"M c #356580",
"N c #356783",
"B c #306586",
"V c #356886",
"C c #31688A",
"Z c #386B89",
"A c #386D8C",
"S c #3B7597",
"D c #3C7399",
"F c #3E7A9C",
"G c #3F81A6",
"H c #4282A6",
"J c #4080A8",
"K c #4183A8",
"L c #4183A9",
"P c #4281B7",
"I c #448DB7",
"U c #4D8EB1",
"Y c #4E8FB3",
"T c #4483BE",
"R c #458FB8",
"E c #458FB9",
"W c #518FB1",
"Q c #4B95BC",
"! c #4797C3",
"~ c #499AC8",
"^ c #499CCA",
"/ c #4AA4D4",
"( c #4BA4D4",
") c #4CA5D6",
"_ c #4FAEE2",
"` c None",
/* pixels */
"````````````````",
"``````````xs````",
"``````pi``~M````",
"```,:5Tj`H_S````",
"`sEdrHPmb__Fx```",
"`>U(f(JL____x```",
"`nUWuQ_____E5```",
"`3hgq______^k```",
"`w28D______!````",
"```t(______ZAbe`",
"````N_______~V``",
"`````lR_BBH-*```",
"`````<711y9o ```",
"`````$.+`0.;````",
"`````+$&%`;o````",
"````````````````"
};
