/* XPM */
static char *_6bf2593ea7e475992aa243dda58e7a0[] = {
/* columns rows colors chars-per-pixel */
"32 32 206 2 ",
"   c #070809",
".  c #08090A",
"X  c #0A0B0C",
"o  c #0A0C0D",
"O  c #0E0F10",
"+  c #0F0F10",
"@  c #0F1317",
"#  c #0C161C",
"$  c #101112",
"%  c #111112",
"&  c #121112",
"*  c #121213",
"=  c #131213",
"-  c #131314",
";  c #151415",
":  c #151516",
">  c #161617",
",  c #131519",
"<  c #17191A",
"1  c #15181C",
"2  c #1A1A1B",
"3  c #1B1A1B",
"4  c #1D1C1D",
"5  c #1F1C1D",
"6  c #1E1D1F",
"7  c #1C1E1F",
"8  c #131A21",
"9  c #121A22",
"0  c #231F20",
"q  c #241F24",
"w  c #152229",
"e  c #172229",
"r  c #1A232A",
"t  c #18262F",
"y  c #1A272F",
"u  c #132631",
"i  c #1A2633",
"p  c #1B2734",
"a  c #182933",
"s  c #1A2832",
"d  c #1B2932",
"f  c #1B2937",
"g  c #1C2B34",
"h  c #1F2E37",
"j  c #16293A",
"k  c #172F3C",
"l  c #1A2A39",
"z  c #1A2F3B",
"x  c #1D2D3C",
"c  c #1D323E",
"v  c #1E333F",
"b  c #232122",
"n  c #212324",
"m  c #272324",
"M  c #272425",
"N  c #292728",
"B  c #272A2E",
"V  c #292B2E",
"C  c #2F3132",
"Z  c #343132",
"A  c #373436",
"S  c #363738",
"D  c #3A3B3C",
"F  c #393C3E",
"G  c #182D47",
"H  c #193342",
"J  c #193442",
"K  c #1F3541",
"L  c #1E3543",
"P  c #1E3346",
"I  c #1E3644",
"U  c #1E395D",
"Y  c #213744",
"T  c #213A47",
"R  c #263847",
"E  c #203A4B",
"W  c #223B4A",
"Q  c #23394E",
"!  c #223D4C",
"~  c #223D4D",
"^  c #233F4F",
"/  c #253E4E",
"(  c #243C54",
")  c #273E5F",
"_  c #55294B",
"`  c #57365B",
"'  c #264151",
"]  c #244253",
"[  c #204357",
"{  c #254354",
"}  c #284252",
"|  c #294455",
" . c #264558",
".. c #264658",
"X. c #27485B",
"o. c #27495B",
"O. c #274A5D",
"+. c #2A495B",
"@. c #2E4D5F",
"#. c #1E407B",
"$. c #224767",
"%. c #2A4F64",
"&. c #2B5167",
"*. c #2B5268",
"=. c #2D556C",
"-. c #2D566D",
";. c #2D586F",
":. c #284F71",
">. c #294F73",
",. c #284C7C",
"<. c #2A5174",
"1. c #29597F",
"2. c #2D5D7E",
"3. c #2D5E7E",
"4. c #395070",
"5. c #305D75",
"6. c #315679",
"7. c #315F78",
"8. c #2D617E",
"9. c #31607A",
"0. c #32627D",
"q. c #32637F",
"w. c #39637B",
"e. c #4A4B4D",
"r. c #4D5257",
"t. c #535567",
"y. c #4E6068",
"u. c #56616B",
"i. c #43677B",
"p. c #5B717C",
"a. c #616B74",
"s. c #806778",
"d. c #243C86",
"f. c #335B82",
"g. c #395982",
"h. c #2E6482",
"j. c #2F6582",
"k. c #366683",
"l. c #356885",
"z. c #366B8A",
"x. c #386D8A",
"c. c #396E8B",
"v. c #37708F",
"b. c #386D92",
"n. c #376E9C",
"m. c #3A6C9B",
"M. c #397292",
"N. c #3B7696",
"B. c #36729A",
"V. c #3C7598",
"C. c #3D749A",
"Z. c #3D7B9D",
"A. c #3D71A2",
"S. c #3F77A4",
"D. c #3D7CA0",
"F. c #3E7DA0",
"G. c #697B83",
"H. c #407DA8",
"J. c #417DB3",
"K. c #427EB6",
"L. c #427FB6",
"P. c #3F80A5",
"I. c #3D84AD",
"U. c #3B82B0",
"Y. c #3F8BB7",
"T. c #56859E",
"R. c #6F838D",
"E. c #778992",
"W. c #4183A8",
"Q. c #4085AB",
"!. c #4088AF",
"~. c #408AB2",
"^. c #408BB4",
"/. c #4181BB",
"(. c #4484BF",
"). c #418FB9",
"_. c #438FB9",
"`. c #408FBA",
"'. c #4190BA",
"]. c #4791BD",
"[. c #4593BE",
"{. c #4694BF",
"}. c #719CB4",
"|. c #78A0B5",
" X c #468BCA",
".X c #4797C3",
"XX c #4896C4",
"oX c #4699C7",
"OX c #4898C5",
"+X c #4899C5",
"@X c #499BC9",
"#X c #509EC9",
"$X c #59A3CB",
"%X c #4AA1D1",
"&X c #4BA4D4",
"*X c #4CA4D5",
"=X c #4CA5D6",
"-X c #65A8CC",
";X c #4FAEE1",
":X c #4FAEE2",
">X c #88949A",
",X c #909DA8",
"<X c #A4ADB1",
"1X c #85AEC4",
"2X c #C3C5C6",
"3X c None",
/* pixels */
"3X3X3X3X3X3X3X3X3X3X3X3X3X3X3X3X3X3X3X3X3X3X3X3X3X3X3X3X3X3X3X3X",
"3X3X3X3X3X3X3X3X3X3X3X3X3X3X3X3X3X3X3X3X3X3X3X3X3X3X3X3X3X3X3X3X",
"3X3X3X3X3X3X3X3X3X3X3X3X3X3X3X3X3X3X3X3X3X3X3X3X3X3X3X3X3X3X3X3X",
"3X3X3X3X3X3X3X3X3X3X3X3X3X3X3X3X3X3X3X3X3Xo.3X3X3X3X3X3X3X3X3X3X",
"3X3X3X3X3X3X3X3X3X3X3X3X3X8 3X3X3X3X3X3X^ :X&.3X3X3X3X3X3X3X3X3X",
"3X3X3X3X3X3X3X3X3X3X3X3X3X6.P 3X3X3X3X3XM.:X+Xe 3X3X3X3X3X3X3X3X",
"3X3X3X3X3X3X3X3X3X3X3X3Xx  Xm.3X3X3X3X! :X:X:X! 3X3X3X3X3X3X3X3X",
"3X3X3X3X3X3X3X7 n 3X3X3Xf. X Xi 3X3Xt '.:X:X:Xo.3X3X3X3X3X3X3X3X",
"3X3X3X3X3XW @.C e.V h (  X X Xf 3X3Xv.:X:X:X:XT e 3X3X3X3X3X3X3X",
"3X3X3X3X9.:Xw.D S F c.C. X Xm.Q p q.:X:X:X:X{.' z.3X3X3X3X3X3X3X",
"3X3X3X*.:X:X:X!.N.~.:X:XS. XL.L.k.:X:X:X:X:X@X:XW.3X3X3X3X3X3X3X",
"3X3XJ ;.'.:X:X:XoX).:X:X].L.S.XX:X:X:X:X:X:X:X:XW.3X3X3X3X3X3X3X",
"3X3Xy.>X1X:X:X&Xi.T.oX:X:XV.:X:X:X:X:X:X:X:X:X:Xl.3X3X3X3X3X3X3X",
"3X3XE.<X|.:X:X}.2XG.-X:X:X:X:X:X:X:X:X:X:X:X:X:XY 3X3X3X3X3X3X3X",
"3X3X3X[ oX:X:X$XR.p.#X:X:X:X:X:X:X:X:X:X:X:X:X| ^ 3X3X3X3X3X3X3X",
"3X3X3XH Y.U.I.1.1.).:X:X:X:X:X:X:X:X:X:X:X:X@X=XZ.3X3X3X3X3X3X3X",
"3X3X3Xh.:Xh.#.d._ ` :X:X:X:X:X:X:X:X:X:X:X:X:X:X0.3X3X3X3X3X3X3X",
"3X3X3X8.^.# $.) 4.:X:X:X:X:X:X:X:X:X:X:X:X:X:X=XY 3X3X3X3X3X3X3X",
"3X3X3Xu k 3X@ [.:X:X:X:X:X:X:X:X:X:X:X:X:X:X:Xo.3X3X3X3X3Xg 3X3X",
"3X3X3X3X3X3X3X-.:X:X:X:X:X:X:X:X:X:X:X:X:X=X} t e d Y -.c.Y 3X3X",
"3X3X3X3X3X3X3Xa .X:X:X:X:X:X:X:X:X:X:X:X:X:X:X:X:X:X:X:X] 3X3X3X",
"3X3X3X3X3X3X3X3X .:X:X:X:X:X:X:X:X:X:X:X:X:X:X:X:X:X%X! 3X3X3X3X",
"3X3X3X3X3X3X3X3X3X5.:X:X:X:X:X:X:X:X:X:X:X:X:X:X:XF.c 3X3X3X3X3X",
"3X3X3X3X3X3X3X3X3X3X%.&X:X:X:X:X:X2.2.:X:X:X:XQ...3X3X3X3X3X3X3X",
"3X3X3X3X3X3X3X3X3X3X3Xz b.+X:X:X:Xn.m.:XF.7.1 * * 3X3X3X3X3X3X3X",
"3X3X3X3X3X3X3X3X3X3X3XU ,.8 K { O.Q K.f R ,XV 0 2 3X3X3X3X3X3X3X",
"3X3X3X3X3X3X3X3X3X3X3XG g.t.3X3X3X3X>.>.a.a.* m * 3X3X3X3X3X3X3X",
"3X3X3X3X3X3X3X3X3X3Xo 3 q a.r., 3X3Xf <.r 0 0 M   3X3X3X3X3X3X3X",
"3X3X3X3X3X3X3X3X3X3X- Z 5 * ; 0 X 3X3X3XX A 0 2 3X3X3X3X3X3X3X3X",
"3X3X3X3X3X3X3X3X3X3X* 4 4 7 N b @ 3X3X3X3X+ > + 3X3X3X3X3X3X3X3X",
"3X3X3X3X3X3X3X3X3X3X3X* * ; + < 3X3X3X3X3X3X3X3X3X3X3X3X3X3X3X3X",
"3X3X3X3X3X3X3X3X3X3X3X3X3X3X3X3X3X3X3X3X3X3X3X3X3X3X3X3X3X3X3X3X"
};
